<svg width="116" height="115" viewBox="0 0 116 115" fill="none" xmlns="http://www.w3.org/2000/svg">
<path d="M57.5 0C25.7 0 0 25.8 0 57.5C0 89.3 25.8 115 57.5 115C89.3 115 115.1 89.2 115.1 57.5C115.1 25.8 89.3 0 57.5 0Z" fill="white"/>
<path d="M57.5 0C89.3 0 115.1 25.8 115.1 57.5C115.1 89.2 89.3 115 57.5 115C25.8 115 0 89.3 0 57.5C0 25.8 25.7 0 57.5 0ZM56.2998 15.0996C49 15.1996 42.9001 15.9997 38.2002 17.5996C33.6002 19.0996 30.2004 21.3002 27.9004 24.2002C23.1005 30.4 24.2996 38.4996 25.5996 44.0996C26.7996 49.2996 29.5998 54.3002 32.2998 59.2002C38.6998 70.7001 41.7999 78.0998 32.5 84.2998C30.8 85.3998 29.0998 86 27.2998 86C23.6999 85.9999 19.4998 84.1996 17.2998 83.0996L17.7998 84.0996C22.3998 90.9996 28.3004 94.7002 34.9004 94.7002C37.8003 94.7001 40.8005 93.9996 43.9004 92.5996C47.2002 91.0996 50.0997 88.4995 52.0996 85.0996C54.0996 81.6996 54.7998 77.9998 54.2998 74.7998C53.5998 71.8999 52.0997 68.0002 50.2998 63.4004C45.6998 51.5005 39.4005 35.3004 44.9004 27.4004C47.2004 24.1004 51.3 22.4004 57.5 22.4004C63.7 22.4004 67.7996 24.1004 70.0996 27.4004C75.4995 35.3004 69.2002 51.5004 64.7002 63.4004C62.9003 68.0002 61.4002 71.8999 60.7002 74.7998C60.1002 78.0998 60.9004 81.8002 62.9004 85.2002C64.9003 88.5999 67.7998 91.3002 71.0996 92.7002C74.1994 94.1001 77.2997 94.7997 80.0996 94.7998C86.6996 94.7998 92.6002 91.1001 97.2002 84.2002L97.7002 83.0996C95.5002 84.1996 91.3002 85.9999 87.7002 86C85.9002 86 84.2 85.4998 82.5 84.2998C73.2002 78.0998 76.4003 70.7001 82.7002 59.2002C85.4002 54.3002 88.2004 49.2996 89.4004 44.0996C90.7004 38.4996 91.8995 30.4 87.0996 24.2002C84.7996 21.3002 81.3998 19.0996 76.7998 17.5996C72.0999 15.9997 66 15.1996 58.7002 15.0996H56.2998Z" fill="#FF4646"/>
</svg>
